<svg xmlns="http://www.w3.org/2000/svg" style="display: none;">
  <symbol id="moon" viewBox="0 0 24 24">
    <path
      d="M12 24c6.6274500000000005 0 12 -5.37255 12 -12 0 -1.229865 -0.18495 -2.416515 -0.5287499999999999 -3.53364C22.5306 10.549935 20.43465 12 18 12 14.68629 12 12 9.31371 12 6 12 3.56538 13.450065000000002 1.4694479999999999 15.5337 0.5287335 14.416515 0.18501599999999999 13.229865 0 12 0 5.372579999999999 0 0 5.372579999999999 0 12c0 6.6274500000000005 5.372579999999999 12 12 12Z"
      stroke-width="1.5"></path>
  </symbol>
  <symbol id="sun" viewBox="0 0 24 24">
    <path
      d="M11.095387500000001 2.049234375v-0.904621875c0 -0.696375 0.75384375 -1.1316 1.3569187500000002 -0.783421875 0.279890625 0.161596875 0.45230625 0.4602375 0.45230625 0.783421875v0.904621875c0 0.696365625 -0.75384375 1.1316 -1.3569187500000002 0.7834125000000001 -0.279890625 -0.1615875 -0.45230625 -0.460228125 -0.45230625 -0.7834125000000001ZM12 4.763071875c-5.570990625 0 -9.05285625 6.030778124999999 -6.26735625 10.8553875 2.785490625 4.82461875 9.749221875 4.82461875 12.5347125 0 0.635175 -1.100146875 0.9695625000000001 -2.3481187500000003 0.9695625000000001 -3.6184593749999996 -0.004359375 -3.9950343750000004 -3.241884375 -7.232559375 -7.236918749999999 -7.236928125ZM4.123059375 5.40309375c0.492684375 0.492684375 1.333959375 0.2672625 1.5142968749999999 -0.40575937500000003 0.083690625 -0.312346875 -0.00560625 -0.6456187499999999 -0.2342625 -0.8742749999999999l-0.904621875 -0.9046125c-0.49267500000000003 -0.492684375 -1.33395 -0.2672625 -1.5142875 0.40575000000000006 -0.083690625 0.312346875 0.00560625 0.645628125 0.2342625 0.8742749999999999Zm0 13.1938125 -0.9046125 0.9046125c-0.492684375 0.492684375 -0.2672625 1.333959375 0.40575000000000006 1.5142968749999999 0.312346875 0.083690625 0.645628125 -0.00560625 0.8742749999999999 -0.2342625l0.904621875 -0.9046125c0.492684375 -0.492684375 0.2672625 -1.333959375 -0.40575937500000003 -1.5142968749999999 -0.312346875 -0.083690625 -0.6456187499999999 0.00560625 -0.8742749999999999 0.2342625ZM19.23691875 5.66769375c0.24 0.0001875 0.470221875 -0.09499687500000001 0.640021875 -0.2646l0.9046125 -0.9046125c0.492684375 -0.492684375 0.2672625 -1.333959375 -0.40575000000000006 -1.5142968749999999 -0.31235625 -0.083690625 -0.645628125 0.00560625 -0.874284375 0.2342625l-0.9046125 0.9046125c-0.492684375 0.492140625 -0.267853125 1.33306875 0.40469062499999997 1.5136781250000002 0.07674375 0.02060625 0.15585937500000002 0.031021875000000004 0.235321875 0.030956249999999998Zm0.640021875 12.929212499999998c-0.492684375 -0.492684375 -1.333959375 -0.2672625 -1.5142968749999999 0.40575937500000003 -0.083690625 0.312346875 0.00560625 0.6456187499999999 0.2342625 0.8742749999999999l0.9046125 0.9046125c0.492684375 0.492684375 1.333959375 0.2672625 1.5142968749999999 -0.40575000000000006 0.083690625 -0.31235625 -0.00560625 -0.645628125 -0.2342625 -0.874284375ZM2.049234375 11.095387500000001h-0.904621875c-0.696375 0 -1.1316 0.75384375 -0.783421875 1.3569187500000002 0.1615875 0.27988124999999997 0.460246875 0.45229687499999993 0.783421875 0.45230625h0.904621875c0.696365625 -0.000028125 1.131609375 -0.7538906249999999 0.7833937499999999 -1.35695625 -0.161596875 -0.279871875 -0.460228125 -0.45226875 -0.7833937499999999 -0.45226875ZM12 21.046153125c-0.499621875 -0.00001875 -0.9046125 0.40499062499999994 -0.9046125 0.9046125v0.904621875c0 0.696365625 0.75384375 1.1316 1.3569187500000002 0.7834125000000001 0.279890625 -0.1615875 0.45230625 -0.460228125 0.45230625 -0.7834125000000001v-0.904621875c0 -0.49958437499999997 -0.40501875 -0.9045937499999999 -0.9046125 -0.9046125Zm10.8553875 -9.950765624999999h-0.904621875c-0.696365625 0.000028125 -1.131609375 0.7538906249999999 -0.7833937499999999 1.35695625 0.161596875 0.279871875 0.460228125 0.45226875 0.7833937499999999 0.45226875h0.904621875c0.696365625 0 1.1316 -0.75384375 0.7834125000000001 -1.3569187500000002 -0.16157812500000002 -0.27988124999999997 -0.4602375 -0.45229687499999993 -0.7834125000000001 -0.45230625Z"
      stroke-width="0.0938"></path>
  </symbol>
  <symbol id="github" viewBox="0 0 24 24">
    <path
      d="M12 2C6.48 2 2 6.48 2 12c0 4.42 2.87 8.17 6.84 9.49.5.09.68-.22.68-.48v-1.7c-2.78.6-3.37-1.34-3.37-1.34-.45-1.16-1.11-1.47-1.11-1.47-.91-.62.07-.61.07-.61 1 .07 1.53 1.03 1.53 1.03.89 1.52 2.34 1.08 2.91.83.09-.64.35-1.08.63-1.33-2.22-.25-4.55-1.11-4.55-4.94 0-1.09.39-1.98 1.03-2.68-.1-.25-.45-1.27.1-2.65 0 0 .84-.27 2.75 1.02.8-.22 1.65-.33 2.5-.33.85 0 1.7.11 2.5.33 1.91-1.29 2.75-1.02 2.75-1.02.55 1.38.2 2.4.1 2.65.64.7 1.03 1.59 1.03 2.68 0 3.84-2.34 4.69-4.57 4.94.36.31.68.92.68 1.85v2.74c0 .27.18.58.69.48C19.14 20.16 22 16.42 22 12c0-5.52-4.48-10-10-10z"
      stroke-linecap="round" />
  </symbol>
  <symbol id="clock" viewBox="0 0 24 24">
    <path
      d="M12 2C6.48 2 2 6.48 2 12s4.48 10 10 10 10-4.48 10-10S17.52 2 12 2zm0 18c-4.41 0-8-3.59-8-8s3.59-8 8-8 8 3.59 8 8-3.59 8-8 8zm.5-13H11v6l5.25 3.15.75-1.23-4.5-2.67z"
      stroke-linecap="round" />
  </symbol>
  <symbol id="slider" viewBox="0 0 24 24">
    <g id="horizontal-slider-2--adjustment-adjust-controls-fader-horizontal-settings-slider">
      <path id="Vector 2003" stroke="#000000" d="M1 12h6.5" stroke-width="1.5"></path>
      <path id="Vector 2004" stroke="#000000" d="M16.5 12H23" stroke-width="1.5"></path>
      <path id="Ellipse 611" stroke="#000000" d="M10 12a2 2 0 1 0 4 0 2 2 0 1 0 -4 0"
        stroke-width="1.5"></path>
      <path id="Vector 2006" stroke="#000000" d="M8.5 4H23" stroke-width="1.5"></path>
      <path id="Ellipse 612" stroke="#000000" d="M2 4a2 2 0 1 0 4 0 2 2 0 1 0 -4 0"
        stroke-width="1.5"></path>
      <path id="Vector 2007" stroke="#000000" d="M1 20h14.5" stroke-width="1.5"></path>
      <path id="Ellipse 613" stroke="#000000" d="M18 20a2 2 0 1 0 4 0 2 2 0 1 0 -4 0"
        stroke-width="1.5"></path>
    </g>
  </symbol>
  <symbol id="arrow-right" viewBox="0 0 24 24">
    <path
      d="M5 12h14M12 5l7 7-7 7"
      stroke="currentColor"
      stroke-width="2"
      stroke-linecap="round"
      stroke-linejoin="round"
      fill="none" />
  </symbol>
  <symbol id="reorder" viewBox="0 0 24 24">
      <circle cx="6"  cy="5"  r="2" />
      <circle cx="18" cy="5"  r="2" />
      <circle cx="6"  cy="12" r="2" />
      <circle cx="18" cy="12" r="2" />
      <circle cx="6"  cy="19" r="2" />
      <circle cx="18" cy="19" r="2" />
  </symbol>
  <symbol id="trash" viewBox="0 0 24 24">
    <path
      d="M3 6h18M8 6V4c0-1.1.9-2 2-2h4c1.1 0 2 .9 2 2v2m3 0v14c0 1.1-.9 2-2 2H7c-1.1 0-2-.9-2-2V6h14zM10 11v6M14 11v6"
      stroke="currentColor"
      stroke-width="2"
      stroke-linecap="round"
      stroke-linejoin="round"
      fill="none" />
  </symbol>
  <symbol id="plus" viewBox="0 0 24 24">
    <path
      d="M12 5v14M5 12h14"
      stroke="currentColor"
      stroke-width="2"
      stroke-linecap="round"
      stroke-linejoin="round" />
  </symbol>
  <symbol id="save" viewBox="0 0 24 24">
    <path
      d="M19 21H5a2 2 0 01-2-2V5a2 2 0 012-2h11l5 5v11a2 2 0 01-2 2zM17 21v-8H7v8M7 3v5h5"
      stroke="currentColor"
      stroke-width="2"
      stroke-linecap="round"
      stroke-linejoin="round"
      fill="none" />
  </symbol>
  <symbol id="close" viewBox="0 0 24 24">
    <path
      d="M18 6L6 18M6 6l12 12"
      stroke="currentColor"
      stroke-width="2"
      stroke-linecap="round"
      stroke-linejoin="round" />
  </symbol>
</svg>